<svg xmlns="http://www.w3.org/2000/svg" viewBox="0 0 64 64">
  <defs>
    <linearGradient id="g" x1="0" y1="0" x2="1" y2="1">
      <stop offset="0" stop-color="#2dd4bf"/>
      <stop offset="1" stop-color="#22c55e"/>
    </linearGradient>
  </defs>
  <rect x="4" y="4" width="56" height="56" rx="14" fill="url(#g)"/>
  <path d="M34 47c-7.6 0-14-6.4-14-14s6.4-14 14-14c4 0 7.3 1.3 9.8 3.9l-4.2 4.2c-1.5-1.5-3.4-2.3-5.6-2.3-4.8 0-8.5 3.8-8.5 8.5s3.7 8.5 8.5 8.5c3.4 0 6-1.4 7.6-4.1h-7.8v-5.7h15.3c.1.8.1 1.5.1 2.1 0 8.8-6.8 15.6-15.2 15.6z" fill="#06241d"/>
</svg>
